<svg xmlns:svg="http://www.w3.org/2000/svg" xmlns="http://www.w3.org/2000/svg" version="1.1" width="560" height="450" id="svg2"><defs id="defs4"/><metadata id="metadata7"/><g transform="translate(-122.43638,-557.228)" id="layer1"><path d="m145.93009 989.14456 0 10.6263c0 4.13134 3.33998 7.45714 7.48875 7.45714l498.40728 0c4.14877 0 7.48875-3.3258 7.48875-7.45714l0-10.6263-513.38478 0zm510.79001-194.70971 0.0633 0c4.13124 0 7.4571 3.32587 7.4571 7.4571l0 13.67136c0 4.13124-3.32586 7.4571-7.4571 7.4571l-0.0633 0c-4.13123 0-7.4571-3.32586-7.4571-7.4571l0-13.67136c0-4.13123 3.32587-7.4571 7.4571-7.4571zm-2.82124-157.13171 5.34911 0 0 153.22566-5.34911 0zm-515.89213-24.85037 0-39.42942-5.92859 0c-5.33413 0-9.64176 4.28942-9.64176 9.60102l0 20.22738c0 5.3116 4.30763 9.60102 9.64176 9.60102l5.92859 0zm528.85929-39.2591 0 39.42942 5.92859 0c5.33413 0 9.64177-4.28942 9.64177-9.60102l0-20.22738c0-5.3116-4.30764-9.60102-9.64177-9.60102l-5.92859 0zM145.73395 557.228l513.51404 0 0 70.30981-513.51404 0zm20.33773 80.23791 0 31.44411 473.19518 0 0-31.44411-473.19518 0zm0 43.87261 0 32.03446 473.19518 0 0-32.03446-473.19518 0zm0 44.46297 0 32.06553 473.19518 0 0-32.06553-473.19518 0zm0 44.49403 0 32.03446 473.19518 0 0-32.03446-473.19518 0zm0 44.46296 0 32.03441 473.19518 0 0-32.03441-473.19518 0zm0 44.46292 0 32.06556 473.19518 0 0-32.06556-473.19518 0zm0 44.49406 0 32.0345 473.19518 0 0-32.0345-473.19518 0zm0 44.463 0 31.2576 473.19518 0 0-31.2576-473.19518 0z" id="rect3165-8" style="fill-opacity:1;fill:#4d4d4d"/></g></svg>
